<?xml version="1.0" standalone="no"?>
<!DOCTYPE svg PUBLIC "-//W3C//DTD SVG 20010904//EN"
 "http://www.w3.org/TR/2001/REC-SVG-20010904/DTD/svg10.dtd">
<svg version="1.0" xmlns="http://www.w3.org/2000/svg"
 width="192.000000pt" height="192.000000pt" viewBox="0 0 192.000000 192.000000"
 preserveAspectRatio="xMidYMid meet">
<metadata>
Created by potrace 1.16, written by Peter Selinger 2001-2019
</metadata>
<g transform="translate(0.000000,192.000000) scale(0.100000,-0.100000)"
fill="#000000" stroke="none">
<path d="M960 1764 c24 -8 50 -20 58 -27 10 -11 121 -573 122 -619 0 -5 -109
-8 -242 -9 -206 0 -238 -2 -209 -13 19 -7 36 -17 39 -24 2 -6 -13 -83 -33
-172 -20 -88 -34 -167 -31 -176 3 -8 -1 -25 -8 -37 -8 -12 -30 -96 -50 -187
-20 -91 -39 -173 -42 -182 -4 -12 0 -18 10 -18 9 0 16 4 16 9 0 5 16 27 36 48
32 34 38 50 62 160 l26 123 210 1 c166 0 206 3 187 12 -23 11 -23 11 15 28
l39 16 -119 8 c-65 4 -147 5 -183 2 -35 -2 -61 -2 -58 2 4 3 86 8 182 11 190
5 221 15 137 44 -36 12 -87 16 -209 16 l-162 0 -43 -31 c-23 -17 -40 -25 -38
-17 3 7 20 23 39 36 22 15 36 34 41 55 3 18 11 58 18 90 l11 57 236 0 235 0
-5 22 c-3 11 -45 194 -93 405 l-88 383 -75 -1 -76 -1 45 -14z"/>
<path d="M1100 1773 c0 -5 41 -187 92 -405 l92 -398 32 0 c31 0 34 5 200 308
92 169 178 325 191 347 l23 40 16 -42 c9 -24 21 -43 26 -43 4 0 8 24 8 54 0
29 3 74 6 100 l7 46 -85 0 -84 0 -163 -300 c-90 -165 -166 -299 -168 -296 -3
3 -102 572 -103 594 0 6 -90 1 -90 -5z"/>
<path d="M610 853 c0 -223 8 -253 30 -123 6 36 10 126 8 200 -3 119 -5 135
-20 138 -17 3 -18 -12 -18 -215z"/>
<path d="M592 949 c-1 -4 -11 -51 -22 -104 -16 -78 -20 -135 -20 -289 0 -110
4 -185 9 -176 5 8 16 51 25 95 14 63 16 122 14 280 -2 110 -4 197 -6 194z"/>
<path d="M520 603 c-6 -32 -16 -74 -21 -93 -5 -19 -9 -83 -9 -142 l0 -108 25
0 25 0 0 200 c0 110 -2 200 -4 200 -3 0 -10 -26 -16 -57z"/>
</g>
</svg>
