<svg width="224" height="224" viewBox="0 0 224 224" fill="none" xmlns="http://www.w3.org/2000/svg">
<g id="football-referee-raising-card-svgrepo-com 1" clip-path="url(#clip0_105_156)">
<g id="Group">
<g id="Group_2">
<path id="Vector" d="M88.5916 152.086C77.9037 153.881 67.9141 157.525 58.9299 162.668V234.997H88.5916V152.086Z" fill="black"/>
<path id="Vector_2" d="M140.562 158.557C129.948 153.849 118.209 151.108 105.816 150.84V235H140.562V158.557Z" fill="black"/>
<path id="Vector_3" d="M41.7111 175.422C25.8228 190.672 16 211.732 16 234.996H41.7111V175.422Z" fill="black"/>
<path id="Vector_4" d="M160.93 207.336C159.829 207.094 158.788 206.738 157.784 206.323V234.995H191.598C191.598 227.471 190.534 220.199 188.602 213.261L160.93 207.336Z" fill="black"/>
<g id="CardYellow">
<path id="card" d="M149.775 181.094C147.871 189.981 153.531 198.731 162.417 200.635L188.562 206.24C197.449 208.148 206.198 202.483 208.103 193.597L217.374 150.359C219.279 141.476 213.614 132.726 204.732 130.818L178.591 125.216C169.705 123.311 160.955 128.974 159.05 137.856L149.775 181.094Z" fill="#FFE600"/>
<path id="!" d="M186.418 151.562L185.676 171.152H180.656L179.914 151.562H186.418ZM179.738 177.227C179.738 176.354 180.051 175.618 180.676 175.02C181.301 174.421 182.128 174.121 183.156 174.121C184.172 174.121 184.986 174.421 185.598 175.02C186.223 175.618 186.535 176.354 186.535 177.227C186.535 178.112 186.223 178.854 185.598 179.453C184.986 180.039 184.172 180.332 183.156 180.332C182.128 180.332 181.301 180.039 180.676 179.453C180.051 178.854 179.738 178.112 179.738 177.227Z" fill="black"/>
</g>
<g id="face">
<g id="SVGRepo_bgCarrier">
<path id="Vector_5" d="M166.165 76.5C166.165 41.8911 138.109 13.835 103.5 13.835C68.8911 13.835 40.835 41.8911 40.835 76.5C40.835 111.109 68.8911 139.165 103.5 139.165C138.109 139.165 166.165 111.109 166.165 76.5Z" fill="#A8978A"/>
</g>
<g id="SVGRepo_iconCarrier">
<path id="Vector_6" d="M103.5 20.4832C72.5607 20.4832 47.4832 45.5607 47.4832 76.5C47.4832 107.439 72.5607 132.517 103.5 132.517C134.439 132.517 159.517 107.439 159.517 76.5C159.454 45.5869 134.413 20.5461 103.505 20.4832H103.5ZM103.5 137.388C69.871 137.388 42.6124 110.129 42.6124 76.5C42.6124 42.871 69.871 15.6124 103.5 15.6124C137.129 15.6124 164.388 42.871 164.388 76.5V76.5787C164.388 110.16 137.166 137.382 103.584 137.382C103.558 137.382 103.526 137.382 103.5 137.382H103.505L103.5 137.388Z" fill="black"/>
<path id="Vector_7" d="M103.5 139.417C68.8224 139.238 40.7616 111.178 40.5833 76.5157V76.5C40.5833 41.7543 68.7543 13.5833 103.5 13.5833C138.246 13.5833 166.417 41.7543 166.417 76.5C166.417 111.246 138.246 139.417 103.5 139.417ZM103.5 17.6415C70.9931 17.6415 44.6415 43.9931 44.6415 76.5C44.6415 109.007 70.9931 135.359 103.5 135.359C136.007 135.359 162.359 109.007 162.359 76.5C162.338 44.0035 135.996 17.6677 103.505 17.6415H103.5ZM103.5 134.95C71.444 134.95 45.4541 108.96 45.4541 76.9037C45.4541 44.8477 71.444 18.8578 103.5 18.8578C135.556 18.8578 161.546 44.8477 161.546 76.9037C161.546 108.96 135.556 134.95 103.5 134.95ZM103.5 22.5123C73.6828 22.5123 49.5123 46.6827 49.5123 76.5C49.5123 106.317 73.6828 130.488 103.5 130.488C133.317 130.488 157.488 106.317 157.488 76.5C157.351 46.7404 133.265 22.6486 103.516 22.5123H103.505H103.5Z" fill="black"/>
<path id="Vector_8" d="M76.708 113.034C76.708 98.2377 88.7041 86.2416 103.5 86.2416C118.296 86.2416 130.292 98.2377 130.292 113.034H76.708Z" fill="black"/>
<path id="Vector_9" d="M91.3204 65.542C91.3204 71.5925 86.4129 76.5 80.3624 76.5C74.3119 76.5 69.4044 71.5925 69.4044 65.542C69.4044 59.4915 74.3119 54.584 80.3624 54.584H80.4096C86.4391 54.584 91.3256 59.4706 91.3256 65.5001V65.5473L91.3204 65.542Z" fill="black"/>
<path id="Vector_10" d="M138.005 65.542V65.5892C138.005 71.6187 133.118 76.5052 127.089 76.5052C127.073 76.5052 127.057 76.5052 127.041 76.5052C121.017 76.4318 116.152 71.5715 116.083 65.5525C116.083 65.5368 116.083 65.5158 116.083 65.5001C116.083 59.4706 120.97 54.584 126.999 54.584H127.047C133.05 54.7046 137.884 59.5387 138.005 65.5315V65.542Z" fill="black"/>
<path id="Vector_11" d="M92.9457 52.146C92.8881 52.1513 92.8251 52.1565 92.7622 52.1565C92.3585 52.1565 91.9967 51.9992 91.7294 51.737L78.3333 43.6208C77.8405 43.1647 77.4315 42.6299 77.1327 42.0269L77.117 41.9955C77.1065 41.9168 77.1012 41.8277 77.1012 41.7385C77.1012 41.23 77.2585 40.7528 77.5259 40.3649L77.5207 40.3753C77.9768 39.8825 78.5116 39.4735 79.1146 39.1747L79.146 39.159C79.2247 39.1485 79.3138 39.1432 79.4029 39.1432C79.9115 39.1432 80.3886 39.3005 80.7766 39.5679L80.7661 39.5627L94.1621 47.6789C94.655 48.1351 95.0639 48.6699 95.3628 49.2728L95.3785 49.3043C95.389 49.3829 95.3943 49.472 95.3943 49.5612C95.3943 50.0698 95.237 50.5469 94.9696 50.9349L94.9748 50.9244C94.5973 51.6532 93.8475 52.1408 92.9877 52.1408C92.972 52.1408 92.9615 52.146 92.9457 52.146Z" fill="black"/>
<path id="Vector_12" d="M92.9457 54.1751C92.0335 54.0859 91.2051 53.7923 90.4868 53.3467L90.513 53.3624L77.117 45.2461C76.147 44.5698 75.4287 43.5841 75.0984 42.4411L75.0879 42.4044C74.9935 42.0636 74.9359 41.6756 74.9359 41.2772C74.9359 40.4959 75.1403 39.7672 75.5021 39.138L75.4916 39.159C76.168 38.189 77.1537 37.4707 78.2966 37.1404L78.3334 37.1299C78.6741 37.0355 79.0621 36.9778 79.4606 36.9778C80.2418 36.9778 80.9706 37.1823 81.5998 37.5441L81.5788 37.5336L94.9748 45.6499C95.9448 46.3262 96.6631 47.3119 96.9934 48.4549L97.0039 48.4916C97.0982 48.8324 97.1559 49.2204 97.1559 49.6189C97.1559 50.4001 96.9514 51.1289 96.5897 51.758L96.6002 51.737C96.0024 53.1789 94.613 54.1751 92.9825 54.1751C92.9667 54.1751 92.9562 54.1751 92.9405 54.1751H92.9457ZM79.9587 41.5917H79.555V41.9955L92.951 50.1117L93.3547 49.708L79.9587 41.5917Z" fill="black"/>
<path id="Vector_13" d="M114.054 52.146C114.044 52.146 114.028 52.146 114.012 52.146C113.147 52.146 112.403 51.6584 112.03 50.9401L112.025 50.9296C111.763 50.5469 111.606 50.075 111.606 49.5612C111.606 49.4721 111.611 49.3829 111.622 49.2938V49.3043C111.742 48.5807 112.198 47.9883 112.827 47.6842L112.838 47.6789L126.234 39.5627C126.617 39.3005 127.089 39.1432 127.602 39.1432C127.691 39.1432 127.781 39.1485 127.87 39.159H127.859C128.583 39.2795 129.175 39.7357 129.479 40.3649L129.485 40.3753C129.747 40.7581 129.904 41.23 129.904 41.7438C129.904 41.8329 129.899 41.922 129.888 42.0112V42.0007C129.768 42.7242 129.312 43.3167 128.682 43.6208L128.672 43.626L115.276 51.7423C115.009 51.9992 114.642 52.1617 114.243 52.1617C114.18 52.1617 114.112 52.1513 114.054 52.146Z" fill="black"/>
<path id="Vector_14" d="M114.054 54.1751H114.033C112.508 54.1751 111.165 53.3729 110.416 52.1617L110.405 52.146C110.054 51.5378 109.849 50.8038 109.849 50.0278C109.849 49.6241 109.902 49.2361 110.007 48.8691L110.001 48.9006C110.3 47.6999 111.029 46.709 112.015 46.0693L112.03 46.0588L125.426 37.9426C126.035 37.5913 126.769 37.3868 127.545 37.3868C127.948 37.3868 128.336 37.4392 128.703 37.5441L128.672 37.5389C129.873 37.8377 130.864 38.5665 131.503 39.5522L131.514 39.5679C131.865 40.1761 132.069 40.9101 132.069 41.6861C132.069 42.0898 132.017 42.4778 131.912 42.8448L131.917 42.8134C131.619 44.014 130.89 45.005 129.904 45.6446L129.888 45.6551L116.492 53.7714C115.889 54.0387 115.192 54.1908 114.453 54.1908C114.311 54.1908 114.175 54.1856 114.039 54.1751H114.054ZM113.645 50.1169L127.445 42.4044V42.0007L125.82 39.9716L127.036 41.597L113.64 49.7132L111.611 51.3386L113.645 50.1169Z" fill="black"/>
</g>
</g>
</g>
</g>
</g>
<defs>
<clipPath id="clip0_105_156">
<rect width="224" height="224" fill="white"/>
</clipPath>
</defs>
</svg>
