<svg width="547" height="515" viewBox="0 0 547 515" fill="none" xmlns="http://www.w3.org/2000/svg">
<rect width="547" height="515" fill="#1E1E1E"/>
<g id="ball-soccer-ball-svgrepo-com 1" clip-path="url(#clip0_0_1)">
<g id="Group">
<g id="Group_2">
<g id="Group_3">
<g id="Estrella3">
<path id="Vector" d="M225.735 160.405L218.916 147.754L212.096 160.405C210.847 162.723 208.541 164.38 205.833 164.912L190.18 168.011L200.782 176.86C203.143 178.826 204.255 181.804 203.718 184.731L201.138 198.928L214.668 192.224C216.007 191.563 217.457 191.237 218.917 191.237C220.375 191.237 221.825 191.563 223.166 192.224L236.694 198.928L234.114 184.731C233.577 181.804 234.689 178.826 237.05 176.86L247.652 168.011L231.999 164.912C229.29 164.38 226.984 162.723 225.735 160.405Z" fill="#138EFF"/>
<path id="Vector_2" d="M283.948 210.294L308.563 171.669L283.948 133.044L259.333 94.4185H178.495L153.88 133.044L129.265 171.669L178.495 248.919H259.333L283.948 210.294ZM254.164 221.565C252.569 222.646 250.691 223.205 248.803 223.205C247.353 223.205 245.895 222.879 244.554 222.218L218.919 209.522L193.274 222.217C190.211 223.736 186.491 223.478 183.665 221.564C180.866 219.642 179.453 216.388 180.045 213.169L184.886 186.535L164.51 169.54C161.93 167.394 160.854 164.055 161.739 160.913C162.623 157.78 165.313 155.386 168.685 154.716L197.813 148.957L210.786 124.897C213.886 119.13 223.942 119.13 227.042 124.897L240.015 148.957L269.143 154.716C272.516 155.386 275.206 157.78 276.089 160.913C276.974 164.055 275.907 167.394 273.318 169.54L252.942 186.535L257.783 213.169C258.376 216.389 256.963 219.642 254.164 221.565Z" fill="#777777"/>
</g>
<path id="Vector_3" d="M299.746 124.459L324.361 163.084H405.199L457.21 81.4821L462.698 71.7232C425.603 38.239 378.569 14.4724 326.203 4.82413L320.031 15.3817L275.131 85.8345L299.746 124.459Z" fill="#777777"/>
<g id="Estrella2">
<path id="Vector_4" d="M349.585 270.561L347.005 284.757L360.534 278.062C361.874 277.402 363.323 277.076 364.783 277.076C366.241 277.076 367.691 277.402 369.032 278.062L382.561 284.757L379.981 270.561C379.444 267.643 380.556 264.655 382.917 262.69L393.52 253.849L377.866 250.75C375.159 250.218 372.852 248.561 371.603 246.235L364.784 233.583L357.964 246.235C356.716 248.561 354.409 250.217 351.702 250.75L336.048 253.849L346.65 262.69C349.002 264.656 350.123 267.643 349.585 270.561Z" fill="#138EFF"/>
<path id="Estrella2_2" d="M405.202 334.748L429.817 296.123L454.433 257.498L429.817 218.872L405.202 180.247H324.364L299.749 218.872L275.134 257.498L299.749 296.123L324.364 334.748H405.202ZM307.607 246.751C308.492 243.618 311.181 241.215 314.554 240.554L343.681 234.794L356.655 210.735C359.754 204.967 369.811 204.967 372.91 210.735L385.883 234.794L415.011 240.554C418.384 241.215 421.074 243.618 421.957 246.751C422.842 249.892 421.766 253.223 419.186 255.377L398.81 272.372L403.651 298.997C404.244 302.216 402.831 305.478 400.031 307.392C398.436 308.483 396.558 309.032 394.67 309.032C393.221 309.032 391.753 308.706 390.421 308.053L364.785 295.358L339.14 308.053C336.077 309.572 332.357 309.315 329.531 307.392C326.732 305.478 325.319 302.216 325.911 298.997L330.752 272.372L310.376 255.377C307.798 253.223 306.722 249.892 307.607 246.751Z" fill="#777777"/>
</g>
<path id="Vector_5" d="M421 343.335L472.847 424.688L476.238 430.276C518.348 386.535 544.677 329.129 546.884 266.085H470.23L421 343.335Z" fill="#777777"/>
<path id="Vector_6" d="M162.699 257.502L113.469 180.251H12.7018C4.53311 204.653 0.111145 230.593 0.111145 257.502C0.111145 284.41 4.53311 310.35 12.7018 334.752H113.469L162.699 257.502Z" fill="#777777"/>
<path id="Vector_7" d="M405.205 351.916H324.358L275.128 429.166L319.855 499.353L326.3 510.159C378.767 500.476 425.864 476.623 462.987 443.028L457.116 433.363L405.205 351.916Z" fill="#777777"/>
<path id="Vector_8" d="M162.698 85.8335L131.82 37.38C81.1499 66.4263 41.3094 110.562 19.2466 163.084H113.468L162.698 85.8335Z" fill="#777777"/>
<path id="Vector_9" d="M259.333 77.2505L304.224 6.81474L307.049 1.99061C296.083 0.729252 284.942 0 273.619 0C228.246 0 185.451 10.5143 147.744 29.0031L178.495 77.2505H259.333Z" fill="#777777"/>
<path id="Vector_10" d="M470.226 248.919H546.889C544.673 185.797 518.29 128.331 476.088 84.5732L473.089 89.9123L420.997 171.669L470.226 248.919Z" fill="#777777"/>
<path id="Vector_11" d="M113.47 351.92H19.2402C41.3116 404.433 81.152 448.578 131.822 477.624L162.7 429.171L113.47 351.92Z" fill="#777777"/>
<path id="Vector_12" d="M259.337 437.75H178.49L147.749 485.997C185.455 504.486 228.24 515 273.614 515C284.955 515 296.114 514.271 307.09 513.008L304.091 507.97L259.337 437.75Z" fill="#777777"/>
<g id="Estrella1">
<path id="Vector_13" d="M129.264 343.335L153.879 381.96L178.494 420.585H259.332L308.572 343.335L283.957 304.71L259.332 266.085H178.494L153.879 304.71L129.264 343.335ZM161.737 332.588C162.621 329.447 165.31 327.052 168.683 326.382L197.811 320.632L210.784 296.564C213.884 290.797 223.949 290.797 227.039 296.564L240.013 320.632L269.15 326.382C272.523 327.052 275.213 329.446 276.088 332.588C276.973 335.722 275.905 339.06 273.325 341.206L252.94 358.201L257.781 384.835C258.374 388.054 256.97 391.307 254.161 393.23C252.566 394.311 250.688 394.869 248.8 394.869C247.35 394.869 245.892 394.544 244.551 393.883L218.915 381.188L193.27 393.883C190.207 395.402 186.486 395.153 183.669 393.23C180.862 391.308 179.458 388.054 180.041 384.835L184.882 358.201L164.506 341.206C161.928 339.06 160.862 335.721 161.737 332.588Z" fill="#777777"/>
<path id="Vector_14" d="M203.718 356.395L201.138 370.592L214.668 363.897C216.008 363.236 217.457 362.91 218.917 362.91C220.375 362.91 221.825 363.236 223.166 363.897L236.694 370.592L234.114 356.395C233.577 353.477 234.689 350.49 237.05 348.524L247.653 339.684L231.999 336.585C229.292 336.053 226.985 334.396 225.736 332.069L218.917 319.418L212.097 332.069C210.848 334.396 208.542 336.052 205.835 336.585L190.181 339.684L200.783 348.524C203.134 350.49 204.256 353.476 203.718 356.395Z" fill="#138EFF"/>
</g>
</g>
</g>
</g>
</g>
<defs>
<clipPath id="clip0_0_1">
<rect width="547" height="515" fill="white"/>
</clipPath>
</defs>
</svg>
